<mxfile host="www.draw.io" modified="2020-03-04T02:43:51.541Z" agent="Mozilla/5.0 (Windows NT 10.0; Win64; x64) AppleWebKit/537.36 (KHTML, like Gecko) Chrome/80.0.3987.122 Safari/537.36" etag="GAsqiWfRDHLyIlV_r-Iu" version="12.7.9" type="github">
  <diagram id="NQUHjma_m_DvAe2xhGhi" name="ページ1">
    <mxGraphModel dx="1422" dy="762" grid="1" gridSize="10" guides="1" tooltips="1" connect="1" arrows="1" fold="1" page="1" pageScale="1" pageWidth="827" pageHeight="1169" math="0" shadow="0">
      <root>
        <mxCell id="0" />
        <mxCell id="1" parent="0" />
        <mxCell id="WSF84um-x85b0tUsc1Db-18" value="" style="shape=cube;whiteSpace=wrap;html=1;boundedLbl=1;backgroundOutline=1;darkOpacity=0.05;darkOpacity2=0.1;" vertex="1" parent="1">
          <mxGeometry x="240" y="500" width="280" height="220" as="geometry" />
        </mxCell>
        <object label="出題者" ユーザー="" id="WSF84um-x85b0tUsc1Db-1">
          <mxCell style="shape=umlActor;verticalLabelPosition=bottom;labelBackgroundColor=#ffffff;verticalAlign=top;html=1;outlineConnect=0;" vertex="1" parent="1">
            <mxGeometry x="60" y="590" width="30" height="60" as="geometry" />
          </mxCell>
        </object>
        <mxCell id="WSF84um-x85b0tUsc1Db-10" value="回答者" style="shape=umlActor;verticalLabelPosition=bottom;labelBackgroundColor=#ffffff;verticalAlign=top;html=1;outlineConnect=0;" vertex="1" parent="1">
          <mxGeometry x="720" y="590" width="30" height="60" as="geometry" />
        </mxCell>
        <mxCell id="WSF84um-x85b0tUsc1Db-25" style="edgeStyle=orthogonalEdgeStyle;rounded=0;orthogonalLoop=1;jettySize=auto;html=1;entryX=0.5;entryY=0.5;entryDx=0;entryDy=0;entryPerimeter=0;startArrow=none;startFill=0;endArrow=none;endFill=0;strokeColor=#000000;" edge="1" parent="1" source="WSF84um-x85b0tUsc1Db-12" target="WSF84um-x85b0tUsc1Db-10">
          <mxGeometry relative="1" as="geometry" />
        </mxCell>
        <mxCell id="WSF84um-x85b0tUsc1Db-12" value="ボタン" style="whiteSpace=wrap;html=1;aspect=fixed;" vertex="1" parent="1">
          <mxGeometry x="560" y="580" width="80" height="80" as="geometry" />
        </mxCell>
        <mxCell id="WSF84um-x85b0tUsc1Db-14" style="edgeStyle=orthogonalEdgeStyle;rounded=0;orthogonalLoop=1;jettySize=auto;html=1;startArrow=diamondThin;startFill=1;" edge="1" parent="1" source="WSF84um-x85b0tUsc1Db-13" target="WSF84um-x85b0tUsc1Db-12">
          <mxGeometry relative="1" as="geometry" />
        </mxCell>
        <mxCell id="WSF84um-x85b0tUsc1Db-13" value="判定" style="whiteSpace=wrap;html=1;aspect=fixed;" vertex="1" parent="1">
          <mxGeometry x="414" y="580" width="80" height="80" as="geometry" />
        </mxCell>
        <mxCell id="WSF84um-x85b0tUsc1Db-17" style="edgeStyle=orthogonalEdgeStyle;rounded=0;orthogonalLoop=1;jettySize=auto;html=1;startArrow=none;startFill=0;strokeColor=#000000;endArrow=none;endFill=0;" edge="1" parent="1" source="WSF84um-x85b0tUsc1Db-15" target="WSF84um-x85b0tUsc1Db-13">
          <mxGeometry relative="1" as="geometry" />
        </mxCell>
        <mxCell id="WSF84um-x85b0tUsc1Db-20" style="edgeStyle=orthogonalEdgeStyle;rounded=0;orthogonalLoop=1;jettySize=auto;html=1;entryX=0.5;entryY=0.5;entryDx=0;entryDy=0;entryPerimeter=0;startArrow=none;startFill=0;endArrow=none;endFill=0;strokeColor=#000000;" edge="1" parent="1" source="WSF84um-x85b0tUsc1Db-15" target="WSF84um-x85b0tUsc1Db-1">
          <mxGeometry relative="1" as="geometry" />
        </mxCell>
        <mxCell id="WSF84um-x85b0tUsc1Db-15" value="制御" style="whiteSpace=wrap;html=1;aspect=fixed;" vertex="1" parent="1">
          <mxGeometry x="290" y="580" width="80" height="80" as="geometry" />
        </mxCell>
        <mxCell id="WSF84um-x85b0tUsc1Db-23" style="edgeStyle=orthogonalEdgeStyle;rounded=0;orthogonalLoop=1;jettySize=auto;html=1;startArrow=none;startFill=0;endArrow=none;endFill=0;strokeColor=#000000;" edge="1" parent="1" source="WSF84um-x85b0tUsc1Db-22" target="WSF84um-x85b0tUsc1Db-15">
          <mxGeometry relative="1" as="geometry" />
        </mxCell>
        <mxCell id="WSF84um-x85b0tUsc1Db-24" style="edgeStyle=orthogonalEdgeStyle;rounded=0;orthogonalLoop=1;jettySize=auto;html=1;entryX=0.5;entryY=0;entryDx=0;entryDy=0;entryPerimeter=0;startArrow=none;startFill=0;endArrow=none;endFill=0;strokeColor=#000000;" edge="1" parent="1" source="WSF84um-x85b0tUsc1Db-22" target="WSF84um-x85b0tUsc1Db-1">
          <mxGeometry relative="1" as="geometry" />
        </mxCell>
        <mxCell id="WSF84um-x85b0tUsc1Db-22" value="リモコン" style="whiteSpace=wrap;html=1;aspect=fixed;" vertex="1" parent="1">
          <mxGeometry x="140" y="450" width="80" height="80" as="geometry" />
        </mxCell>
        <mxCell id="WSF84um-x85b0tUsc1Db-28" value="" style="endArrow=none;html=1;strokeColor=#000000;exitX=0.5;exitY=0;exitDx=0;exitDy=0;" edge="1" parent="1" source="WSF84um-x85b0tUsc1Db-13">
          <mxGeometry width="50" height="50" relative="1" as="geometry">
            <mxPoint x="450" y="480" as="sourcePoint" />
            <mxPoint x="610" y="490" as="targetPoint" />
          </mxGeometry>
        </mxCell>
        <mxCell id="WSF84um-x85b0tUsc1Db-29" value="" style="endArrow=none;html=1;strokeColor=#000000;exitX=0.5;exitY=0;exitDx=0;exitDy=0;exitPerimeter=0;" edge="1" parent="1" source="WSF84um-x85b0tUsc1Db-10">
          <mxGeometry width="50" height="50" relative="1" as="geometry">
            <mxPoint x="390" y="810" as="sourcePoint" />
            <mxPoint x="610" y="490" as="targetPoint" />
          </mxGeometry>
        </mxCell>
      </root>
    </mxGraphModel>
  </diagram>
</mxfile>
